<?xml version="1.0" encoding="UTF-8" standalone="no"?>
<!DOCTYPE svg PUBLIC "-//W3C//DTD SVG 1.1//EN" "http://www.w3.org/Graphics/SVG/1.1/DTD/svg11.dtd">
<svg width="100%" height="100%" viewBox="0 0 1280 640" version="1.1" xmlns="http://www.w3.org/2000/svg" xmlns:xlink="http://www.w3.org/1999/xlink" xml:space="preserve" xmlns:serif="http://www.serif.com/" style="fill-rule:evenodd;clip-rule:evenodd;stroke-linecap:round;stroke-linejoin:round;stroke-miterlimit:1.5;">
    <g id="Schriftzug" transform="matrix(1.10971,0,0,1.10971,-140.428,-18.4791)">
        <g transform="matrix(0.901137,0,0,0.901137,370.057,22.6137)">
            <g transform="matrix(200,0,0,200,183.404,461.497)">
                <path d="M0.085,-0.74L0.165,-0.74L0.165,-0.433L0.169,-0.433C0.182,-0.465 0.202,-0.489 0.228,-0.505C0.253,-0.52 0.284,-0.528 0.32,-0.528C0.352,-0.528 0.381,-0.522 0.407,-0.509C0.433,-0.496 0.455,-0.478 0.473,-0.455C0.492,-0.432 0.506,-0.403 0.516,-0.37C0.525,-0.337 0.53,-0.299 0.53,-0.258C0.53,-0.217 0.525,-0.179 0.516,-0.146C0.506,-0.113 0.492,-0.084 0.473,-0.061C0.455,-0.038 0.433,-0.02 0.407,-0.007C0.381,0.006 0.352,0.012 0.32,0.012C0.25,0.012 0.2,-0.02 0.169,-0.083L0.165,-0.083L0.165,0L0.085,0L0.085,-0.74ZM0.298,-0.059C0.343,-0.059 0.379,-0.073 0.405,-0.102C0.431,-0.13 0.444,-0.168 0.444,-0.214L0.444,-0.302C0.444,-0.348 0.431,-0.386 0.405,-0.414C0.379,-0.443 0.343,-0.457 0.298,-0.457C0.28,-0.457 0.263,-0.454 0.247,-0.449C0.23,-0.444 0.216,-0.438 0.204,-0.429C0.192,-0.42 0.183,-0.41 0.175,-0.397C0.169,-0.385 0.165,-0.372 0.165,-0.358L0.165,-0.165C0.165,-0.148 0.169,-0.133 0.175,-0.12C0.183,-0.107 0.192,-0.096 0.204,-0.087C0.216,-0.078 0.23,-0.071 0.247,-0.066C0.263,-0.061 0.28,-0.059 0.298,-0.059Z" style="fill:rgb(51,51,51);fill-rule:nonzero;"/>
            </g>
            <g transform="matrix(200,0,0,200,299.404,461.497)">
                <path d="M0.46,0C0.43,0 0.408,-0.008 0.396,-0.024C0.383,-0.04 0.374,-0.06 0.371,-0.084L0.366,-0.084C0.355,-0.052 0.336,-0.028 0.31,-0.012C0.284,0.004 0.253,0.012 0.217,0.012C0.162,0.012 0.12,-0.002 0.09,-0.03C0.059,-0.058 0.044,-0.096 0.044,-0.144C0.044,-0.193 0.062,-0.23 0.098,-0.256C0.133,-0.282 0.189,-0.295 0.264,-0.295L0.366,-0.295L0.366,-0.346C0.366,-0.383 0.356,-0.411 0.336,-0.43C0.316,-0.449 0.285,-0.459 0.244,-0.459C0.213,-0.459 0.187,-0.452 0.166,-0.438C0.145,-0.424 0.127,-0.405 0.113,-0.382L0.065,-0.427C0.079,-0.455 0.101,-0.479 0.132,-0.499C0.163,-0.518 0.201,-0.528 0.248,-0.528C0.311,-0.528 0.359,-0.513 0.394,-0.482C0.429,-0.452 0.446,-0.409 0.446,-0.354L0.446,-0.071L0.505,-0.071L0.505,0L0.46,0ZM0.23,-0.056C0.25,-0.056 0.268,-0.058 0.285,-0.063C0.302,-0.068 0.316,-0.074 0.328,-0.083C0.34,-0.092 0.349,-0.102 0.356,-0.113C0.363,-0.124 0.366,-0.137 0.366,-0.15L0.366,-0.235L0.26,-0.235C0.214,-0.235 0.181,-0.228 0.16,-0.215C0.139,-0.202 0.128,-0.182 0.128,-0.157L0.128,-0.136C0.128,-0.111 0.137,-0.091 0.156,-0.077C0.174,-0.063 0.199,-0.056 0.23,-0.056Z" style="fill:rgb(51,51,51);fill-rule:nonzero;"/>
            </g>
            <g transform="matrix(200,0,0,200,406.204,461.497)">
                <path d="M0.24,0.012C0.192,0.012 0.152,0.003 0.119,-0.016C0.087,-0.034 0.059,-0.058 0.036,-0.089L0.093,-0.135C0.113,-0.11 0.135,-0.09 0.16,-0.077C0.185,-0.063 0.213,-0.056 0.246,-0.056C0.28,-0.056 0.307,-0.063 0.326,-0.078C0.344,-0.093 0.354,-0.113 0.354,-0.14C0.354,-0.16 0.347,-0.177 0.335,-0.192C0.322,-0.206 0.298,-0.216 0.264,-0.221L0.223,-0.227C0.199,-0.23 0.177,-0.235 0.157,-0.243C0.137,-0.25 0.119,-0.259 0.105,-0.271C0.09,-0.282 0.078,-0.297 0.07,-0.314C0.061,-0.331 0.057,-0.352 0.057,-0.376C0.057,-0.401 0.062,-0.424 0.071,-0.443C0.08,-0.462 0.093,-0.477 0.11,-0.49C0.126,-0.503 0.145,-0.512 0.168,-0.519C0.191,-0.525 0.215,-0.528 0.241,-0.528C0.283,-0.528 0.318,-0.521 0.346,-0.506C0.375,-0.491 0.4,-0.471 0.421,-0.445L0.368,-0.397C0.357,-0.413 0.34,-0.428 0.318,-0.441C0.296,-0.454 0.268,-0.46 0.235,-0.46C0.202,-0.46 0.177,-0.453 0.16,-0.439C0.142,-0.424 0.134,-0.405 0.134,-0.38C0.134,-0.355 0.142,-0.336 0.16,-0.325C0.177,-0.314 0.201,-0.305 0.233,-0.3L0.273,-0.294C0.33,-0.285 0.371,-0.269 0.395,-0.245C0.419,-0.22 0.431,-0.188 0.431,-0.149C0.431,-0.099 0.414,-0.06 0.38,-0.031C0.346,-0.002 0.299,0.012 0.24,0.012Z" style="fill:rgb(51,51,51);fill-rule:nonzero;"/>
            </g>
            <g transform="matrix(200,0,0,200,503.604,461.497)">
                <path d="M0.279,0.012C0.244,0.012 0.212,0.006 0.184,-0.007C0.155,-0.02 0.131,-0.038 0.111,-0.062C0.09,-0.085 0.075,-0.114 0.064,-0.147C0.053,-0.18 0.047,-0.217 0.047,-0.258C0.047,-0.299 0.053,-0.336 0.064,-0.369C0.075,-0.402 0.09,-0.431 0.111,-0.455C0.131,-0.478 0.155,-0.496 0.184,-0.509C0.212,-0.522 0.244,-0.528 0.279,-0.528C0.314,-0.528 0.345,-0.522 0.372,-0.509C0.399,-0.496 0.423,-0.479 0.442,-0.457C0.461,-0.434 0.476,-0.408 0.487,-0.378C0.497,-0.347 0.502,-0.313 0.502,-0.277L0.502,-0.239L0.131,-0.239L0.131,-0.215C0.131,-0.193 0.135,-0.172 0.141,-0.154C0.149,-0.135 0.159,-0.118 0.172,-0.104C0.185,-0.09 0.201,-0.079 0.22,-0.071C0.238,-0.063 0.26,-0.059 0.284,-0.059C0.317,-0.059 0.345,-0.067 0.37,-0.082C0.394,-0.097 0.413,-0.119 0.426,-0.148L0.483,-0.107C0.466,-0.071 0.44,-0.043 0.405,-0.021C0.37,0.001 0.328,0.012 0.279,0.012ZM0.279,-0.461C0.257,-0.461 0.237,-0.457 0.219,-0.45C0.201,-0.442 0.186,-0.431 0.172,-0.417C0.16,-0.403 0.149,-0.387 0.142,-0.368C0.135,-0.349 0.131,-0.328 0.131,-0.306L0.131,-0.299L0.416,-0.299L0.416,-0.31C0.416,-0.356 0.404,-0.392 0.379,-0.42C0.354,-0.447 0.32,-0.461 0.279,-0.461Z" style="fill:rgb(51,51,51);fill-rule:nonzero;"/>
            </g>
            <g transform="matrix(200,0,0,200,609.404,461.497)">
                <path d="M0.136,0.012C0.115,0.012 0.099,0.007 0.09,-0.004C0.08,-0.015 0.075,-0.029 0.075,-0.046L0.075,-0.059C0.075,-0.076 0.08,-0.09 0.09,-0.101C0.099,-0.112 0.115,-0.117 0.136,-0.117C0.157,-0.117 0.173,-0.112 0.183,-0.101C0.192,-0.09 0.197,-0.076 0.197,-0.059L0.197,-0.046C0.197,-0.029 0.192,-0.015 0.183,-0.004C0.173,0.007 0.157,0.012 0.136,0.012Z" style="fill:rgb(51,51,51);fill-rule:nonzero;"/>
            </g>
            <g transform="matrix(200,0,0,200,661.804,461.497)">
                <path d="M0.277,0.012C0.241,0.012 0.209,0.006 0.18,-0.007C0.151,-0.02 0.127,-0.038 0.108,-0.061C0.088,-0.084 0.073,-0.113 0.063,-0.146C0.052,-0.179 0.047,-0.217 0.047,-0.258C0.047,-0.299 0.052,-0.337 0.063,-0.37C0.073,-0.403 0.088,-0.432 0.108,-0.455C0.127,-0.478 0.151,-0.496 0.18,-0.509C0.209,-0.522 0.241,-0.528 0.277,-0.528C0.328,-0.528 0.37,-0.517 0.401,-0.495C0.432,-0.472 0.455,-0.443 0.47,-0.407L0.403,-0.373C0.394,-0.4 0.378,-0.42 0.357,-0.435C0.336,-0.45 0.309,-0.457 0.277,-0.457C0.253,-0.457 0.232,-0.453 0.214,-0.446C0.196,-0.438 0.181,-0.427 0.169,-0.413C0.157,-0.4 0.148,-0.384 0.142,-0.365C0.136,-0.345 0.133,-0.325 0.133,-0.302L0.133,-0.214C0.133,-0.169 0.145,-0.132 0.17,-0.102C0.194,-0.074 0.23,-0.059 0.277,-0.059C0.342,-0.059 0.388,-0.089 0.417,-0.149L0.475,-0.11C0.458,-0.073 0.434,-0.043 0.401,-0.021C0.368,0.001 0.326,0.012 0.277,0.012Z" style="fill:rgb(51,51,51);fill-rule:nonzero;"/>
            </g>
            <g transform="matrix(200,0,0,200,762.404,461.497)">
                <path d="M0.24,0.012C0.192,0.012 0.152,0.003 0.119,-0.016C0.087,-0.034 0.059,-0.058 0.036,-0.089L0.093,-0.135C0.113,-0.11 0.135,-0.09 0.16,-0.077C0.185,-0.063 0.213,-0.056 0.246,-0.056C0.28,-0.056 0.307,-0.063 0.326,-0.078C0.344,-0.093 0.354,-0.113 0.354,-0.14C0.354,-0.16 0.347,-0.177 0.335,-0.192C0.322,-0.206 0.298,-0.216 0.264,-0.221L0.223,-0.227C0.199,-0.23 0.177,-0.235 0.157,-0.243C0.137,-0.25 0.119,-0.259 0.105,-0.271C0.09,-0.282 0.078,-0.297 0.07,-0.314C0.061,-0.331 0.057,-0.352 0.057,-0.376C0.057,-0.401 0.062,-0.424 0.071,-0.443C0.08,-0.462 0.093,-0.477 0.11,-0.49C0.126,-0.503 0.145,-0.512 0.168,-0.519C0.191,-0.525 0.215,-0.528 0.241,-0.528C0.283,-0.528 0.318,-0.521 0.346,-0.506C0.375,-0.491 0.4,-0.471 0.421,-0.445L0.368,-0.397C0.357,-0.413 0.34,-0.428 0.318,-0.441C0.296,-0.454 0.268,-0.46 0.235,-0.46C0.202,-0.46 0.177,-0.453 0.16,-0.439C0.142,-0.424 0.134,-0.405 0.134,-0.38C0.134,-0.355 0.142,-0.336 0.16,-0.325C0.177,-0.314 0.201,-0.305 0.233,-0.3L0.273,-0.294C0.33,-0.285 0.371,-0.269 0.395,-0.245C0.419,-0.22 0.431,-0.188 0.431,-0.149C0.431,-0.099 0.414,-0.06 0.38,-0.031C0.346,-0.002 0.299,0.012 0.24,0.012Z" style="fill:rgb(51,51,51);fill-rule:nonzero;"/>
            </g>
            <g transform="matrix(200,0,0,200,858.604,461.497)">
                <path d="M0.24,0.012C0.192,0.012 0.152,0.003 0.119,-0.016C0.087,-0.034 0.059,-0.058 0.036,-0.089L0.093,-0.135C0.113,-0.11 0.135,-0.09 0.16,-0.077C0.185,-0.063 0.213,-0.056 0.246,-0.056C0.28,-0.056 0.307,-0.063 0.326,-0.078C0.344,-0.093 0.354,-0.113 0.354,-0.14C0.354,-0.16 0.347,-0.177 0.335,-0.192C0.322,-0.206 0.298,-0.216 0.264,-0.221L0.223,-0.227C0.199,-0.23 0.177,-0.235 0.157,-0.243C0.137,-0.25 0.119,-0.259 0.105,-0.271C0.09,-0.282 0.078,-0.297 0.07,-0.314C0.061,-0.331 0.057,-0.352 0.057,-0.376C0.057,-0.401 0.062,-0.424 0.071,-0.443C0.08,-0.462 0.093,-0.477 0.11,-0.49C0.126,-0.503 0.145,-0.512 0.168,-0.519C0.191,-0.525 0.215,-0.528 0.241,-0.528C0.283,-0.528 0.318,-0.521 0.346,-0.506C0.375,-0.491 0.4,-0.471 0.421,-0.445L0.368,-0.397C0.357,-0.413 0.34,-0.428 0.318,-0.441C0.296,-0.454 0.268,-0.46 0.235,-0.46C0.202,-0.46 0.177,-0.453 0.16,-0.439C0.142,-0.424 0.134,-0.405 0.134,-0.38C0.134,-0.355 0.142,-0.336 0.16,-0.325C0.177,-0.314 0.201,-0.305 0.233,-0.3L0.273,-0.294C0.33,-0.285 0.371,-0.269 0.395,-0.245C0.419,-0.22 0.431,-0.188 0.431,-0.149C0.431,-0.099 0.414,-0.06 0.38,-0.031C0.346,-0.002 0.299,0.012 0.24,0.012Z" style="fill:rgb(51,51,51);fill-rule:nonzero;"/>
            </g>
        </g>
        <g id="baseline" transform="matrix(3.53959,0,0,2.13942,-286.004,-363.174)">
            <rect x="116.553" y="359.247" width="325.872" height="30.922" style="fill:rgb(51,51,51);"/>
        </g>
    </g>
    <g id="Stift---Lineal" serif:id="Stift &amp; Lineal" transform="matrix(0.860261,0.69131,-0.69131,0.860261,168.946,-119.33)">
        <g id="Lineal">
            <g transform="matrix(2.87965,0,0,2.10311,-1356.82,-260.601)">
                <path d="M627.978,245.154C627.978,243.404 626.94,241.983 625.662,241.983L510.03,241.983C508.752,241.983 507.714,243.404 507.714,245.154L507.714,284.676C507.714,286.426 508.752,287.847 510.03,287.847L625.662,287.847C626.94,287.847 627.978,286.426 627.978,284.676L627.978,245.154Z" style="fill:white;stroke:rgb(51,51,51);stroke-width:2.99px;"/>
            </g>
            <g transform="matrix(0,-0.86704,0.737396,0,-71.384,465.829)">
                <path d="M252.05,267.273C252.05,265.605 250.899,264.251 249.48,264.251L225.439,264.251C224.02,264.251 222.869,265.605 222.869,267.273L222.869,273.317C222.869,274.985 224.02,276.34 225.439,276.34L249.48,276.34C250.899,276.34 252.05,274.985 252.05,273.317L252.05,267.273Z" style="fill:rgb(51,51,51);stroke:rgb(51,51,51);stroke-width:0.94px;"/>
            </g>
            <g transform="matrix(0,-0.86704,0.737396,0,-17.7523,466.853)">
                <path d="M252.05,267.273C252.05,265.605 250.899,264.251 249.48,264.251L225.439,264.251C224.02,264.251 222.869,265.605 222.869,267.273L222.869,273.317C222.869,274.985 224.02,276.34 225.439,276.34L249.48,276.34C250.899,276.34 252.05,274.985 252.05,273.317L252.05,267.273Z" style="fill:rgb(51,51,51);stroke:rgb(51,51,51);stroke-width:0.94px;"/>
            </g>
            <g transform="matrix(0,-0.86704,0.737396,0,143.621,465.829)">
                <path d="M252.05,267.273C252.05,265.605 250.899,264.251 249.48,264.251L225.439,264.251C224.02,264.251 222.869,265.605 222.869,267.273L222.869,273.317C222.869,274.985 224.02,276.34 225.439,276.34L249.48,276.34C250.899,276.34 252.05,274.985 252.05,273.317L252.05,267.273Z" style="fill:rgb(51,51,51);stroke:rgb(51,51,51);stroke-width:0.94px;"/>
            </g>
            <g transform="matrix(0,-0.86704,0.737396,0,143.621,465.829)">
                <path d="M252.05,267.273C252.05,265.605 250.899,264.251 249.48,264.251L225.439,264.251C224.02,264.251 222.869,265.605 222.869,267.273L222.869,273.317C222.869,274.985 224.02,276.34 225.439,276.34L249.48,276.34C250.899,276.34 252.05,274.985 252.05,273.317L252.05,267.273Z" style="fill:rgb(51,51,51);stroke:rgb(51,51,51);stroke-width:0.94px;"/>
            </g>
            <g transform="matrix(0,-0.86704,0.737396,0,197.245,465.829)">
                <path d="M252.05,267.273C252.05,265.605 250.899,264.251 249.48,264.251L225.439,264.251C224.02,264.251 222.869,265.605 222.869,267.273L222.869,273.317C222.869,274.985 224.02,276.34 225.439,276.34L249.48,276.34C250.899,276.34 252.05,274.985 252.05,273.317L252.05,267.273Z" style="fill:rgb(51,51,51);stroke:rgb(51,51,51);stroke-width:0.94px;"/>
            </g>
            <g transform="matrix(-9.37849e-18,-1.21062,0.737396,5.07094e-18,-44.7276,553.453)">
                <path d="M252.05,267.273C252.05,265.605 251.225,264.251 250.209,264.251L224.709,264.251C223.693,264.251 222.869,265.605 222.869,267.273L222.869,273.317C222.869,274.985 223.693,276.34 224.709,276.34L250.209,276.34C251.225,276.34 252.05,274.985 252.05,273.317L252.05,267.273Z" style="fill:rgb(51,51,51);stroke:rgb(51,51,51);stroke-width:0.75px;"/>
            </g>
            <g transform="matrix(-9.37849e-18,-1.21062,0.737396,5.07094e-18,9.22634,552.429)">
                <path d="M252.05,267.273C252.05,265.605 251.225,264.251 250.209,264.251L224.709,264.251C223.693,264.251 222.869,265.605 222.869,267.273L222.869,273.317C222.869,274.985 223.693,276.34 224.709,276.34L250.209,276.34C251.225,276.34 252.05,274.985 252.05,273.317L252.05,267.273Z" style="fill:rgb(51,51,51);stroke:rgb(51,51,51);stroke-width:0.75px;"/>
            </g>
            <g transform="matrix(-9.37849e-18,-1.21062,0.737396,5.07094e-18,170.599,552.429)">
                <path d="M252.05,267.273C252.05,265.605 251.225,264.251 250.209,264.251L224.709,264.251C223.693,264.251 222.869,265.605 222.869,267.273L222.869,273.317C222.869,274.985 223.693,276.34 224.709,276.34L250.209,276.34C251.225,276.34 252.05,274.985 252.05,273.317L252.05,267.273Z" style="fill:rgb(51,51,51);stroke:rgb(51,51,51);stroke-width:0.75px;"/>
            </g>
            <g transform="matrix(-9.37849e-18,-1.21062,0.737396,5.07094e-18,223.975,552.429)">
                <path d="M252.05,267.273C252.05,265.605 251.225,264.251 250.209,264.251L224.709,264.251C223.693,264.251 222.869,265.605 222.869,267.273L222.869,273.317C222.869,274.985 223.693,276.34 224.709,276.34L250.209,276.34C251.225,276.34 252.05,274.985 252.05,273.317L252.05,267.273Z" style="fill:rgb(51,51,51);stroke:rgb(51,51,51);stroke-width:0.75px;"/>
            </g>
        </g>
        <g id="Stift">
            <path d="M329.564,224.036L229.079,224.036L229.079,440.189L277.965,497.056L329.564,440.189L329.564,224.036Z" style="fill:white;stroke:rgb(51,51,51);stroke-width:7.55px;stroke-linejoin:miter;"/>
            <g transform="matrix(0.993924,-3.33067e-16,0,1.2109,-285.684,-124.519)">
                <path d="M627.978,245.154C627.978,243.404 626.247,241.983 624.115,241.983L511.577,241.983C509.445,241.983 507.714,243.404 507.714,245.154L507.714,284.676C507.714,286.426 509.445,287.847 511.577,287.847L624.115,287.847C626.247,287.847 627.978,286.426 627.978,284.676L627.978,245.154Z" style="fill:white;stroke:rgb(51,51,51);stroke-width:6.82px;"/>
            </g>
            <g transform="matrix(9.9437e-18,-1.02943,0.737396,-8.45688e-18,62.56,522.014)">
                <path d="M252.05,267.273C252.05,265.605 251.08,264.251 249.885,264.251L225.033,264.251C223.839,264.251 222.869,265.605 222.869,267.273L222.869,273.317C222.869,274.985 223.839,276.34 225.033,276.34L249.885,276.34C251.08,276.34 252.05,274.985 252.05,273.317L252.05,267.273Z" style="fill:rgb(51,51,51);stroke:rgb(51,51,51);stroke-width:0.84px;"/>
            </g>
            <g transform="matrix(1.8494e-16,-3.88734,0.737396,-1.57287e-16,62.56,1284.78)">
                <path d="M252.05,267.273C252.05,265.605 251.793,264.251 251.477,264.251L223.442,264.251C223.125,264.251 222.869,265.605 222.869,267.273L222.869,273.317C222.869,274.985 223.125,276.34 223.442,276.34L251.477,276.34C251.793,276.34 252.05,274.985 252.05,273.317L252.05,267.273Z" style="fill:rgb(51,51,51);stroke:rgb(51,51,51);stroke-width:0.27px;"/>
            </g>
            <g transform="matrix(1.0964,-0.818617,0.441166,0.590869,-132.446,462.156)">
                <rect x="222.869" y="264.251" width="29.182" height="12.089" style="fill:rgb(51,51,51);stroke:rgb(51,51,51);stroke-width:0.69px;"/>
            </g>
            <g transform="matrix(0.747639,0.747639,-0.521418,0.521418,233.708,105.3)">
                <rect x="222.869" y="264.251" width="29.182" height="12.089" style="fill:rgb(51,51,51);stroke:rgb(51,51,51);stroke-width:0.83px;"/>
            </g>
            <g transform="matrix(-0.747639,0.747639,-0.521418,-0.521418,604.348,387.174)">
                <rect x="222.869" y="264.251" width="29.182" height="12.089" style="fill:rgb(51,51,51);stroke:rgb(51,51,51);stroke-width:0.83px;"/>
            </g>
            <g transform="matrix(1.17669,1.17669,-0.521418,0.521418,171.605,9.67779)">
                <rect x="222.869" y="264.251" width="29.182" height="12.089" style="fill:rgb(51,51,51);stroke:rgb(51,51,51);stroke-width:0.59px;"/>
            </g>
            <g transform="matrix(2.2089e-16,-4.47444,0.737396,-1.87861e-16,94.9063,1415.63)">
                <path d="M252.05,267.273C252.05,265.605 251.827,264.251 251.552,264.251L223.367,264.251C223.092,264.251 222.869,265.605 222.869,267.273L222.869,273.317C222.869,274.985 223.092,276.34 223.367,276.34L251.552,276.34C251.827,276.34 252.05,274.985 252.05,273.317L252.05,267.273Z" style="fill:rgb(51,51,51);stroke:rgb(51,51,51);stroke-width:0.24px;"/>
            </g>
            <g transform="matrix(-1.46225e-17,-0.628236,0.737396,1.24361e-17,106.749,345.448)">
                <path d="M252.05,267.273C252.05,265.605 250.461,264.251 248.503,264.251L226.416,264.251C224.458,264.251 222.869,265.605 222.869,267.273L222.869,273.317C222.869,274.985 224.458,276.34 226.416,276.34L248.503,276.34C250.461,276.34 252.05,274.985 252.05,273.317L252.05,267.273Z" style="fill:rgb(51,51,51);stroke:rgb(51,51,51);stroke-width:1.1px;"/>
            </g>
            <g transform="matrix(-1.46225e-17,-0.628236,0.737396,1.24361e-17,78.7473,345.448)">
                <path d="M252.05,267.273C252.05,265.605 250.461,264.251 248.503,264.251L226.416,264.251C224.458,264.251 222.869,265.605 222.869,267.273L222.869,273.317C222.869,274.985 224.458,276.34 226.416,276.34L248.503,276.34C250.461,276.34 252.05,274.985 252.05,273.317L252.05,267.273Z" style="fill:rgb(51,51,51);stroke:rgb(51,51,51);stroke-width:1.1px;"/>
            </g>
            <g transform="matrix(-1.46225e-17,-0.628236,0.737396,1.24361e-17,134.706,345.448)">
                <path d="M252.05,267.273C252.05,265.605 250.461,264.251 248.503,264.251L226.416,264.251C224.458,264.251 222.869,265.605 222.869,267.273L222.869,273.317C222.869,274.985 224.458,276.34 226.416,276.34L248.503,276.34C250.461,276.34 252.05,274.985 252.05,273.317L252.05,267.273Z" style="fill:rgb(51,51,51);stroke:rgb(51,51,51);stroke-width:1.1px;"/>
            </g>
            <g transform="matrix(-1.46225e-17,-0.628236,0.737396,1.24361e-17,24.0878,345.448)">
                <path d="M252.05,267.273C252.05,265.605 250.461,264.251 248.503,264.251L226.416,264.251C224.458,264.251 222.869,265.605 222.869,267.273L222.869,273.317C222.869,274.985 224.458,276.34 226.416,276.34L248.503,276.34C250.461,276.34 252.05,274.985 252.05,273.317L252.05,267.273Z" style="fill:rgb(51,51,51);stroke:rgb(51,51,51);stroke-width:1.1px;"/>
            </g>
            <g transform="matrix(-1.46225e-17,-0.628236,0.737396,1.24361e-17,51.3272,345.448)">
                <path d="M252.05,267.273C252.05,265.605 250.461,264.251 248.503,264.251L226.416,264.251C224.458,264.251 222.869,265.605 222.869,267.273L222.869,273.317C222.869,274.985 224.458,276.34 226.416,276.34L248.503,276.34C250.461,276.34 252.05,274.985 252.05,273.317L252.05,267.273Z" style="fill:rgb(51,51,51);stroke:rgb(51,51,51);stroke-width:1.1px;"/>
            </g>
            <g transform="matrix(1.56175,0,0,0.947606,-331.63,-43.7986)">
                <path d="M421.629,182.842C421.629,179.038 420.712,175.39 419.08,172.7C417.448,170.01 415.234,168.499 412.926,168.499L367.728,168.499C365.42,168.499 363.207,170.01 361.574,172.7C359.942,175.39 359.025,179.038 359.025,182.842L359.025,224.036L421.629,224.036L421.629,182.842Z" style="fill:white;stroke:rgb(51,51,51);stroke-width:5.85px;stroke-linejoin:miter;"/>
            </g>
        </g>
    </g>
</svg>
